{
  "accessors": [
    {
      "bufferView": 2,
      "componentType": 5126,
      "count": 204,
      "max": [
        0.9082048535346985,
        0.12357605248689651,
        0.9132002592086792
      ],
      "min": [
        -0.8982778191566467,
        -0.051953211426734924,
        -0.9651618003845215
      ],
      "type": "VEC3"
    },
    {
      "bufferView": 2,
      "byteOffset": 2448,
      "componentType": 5126,
      "count": 204,
      "max": [
        0.9999997615814209,
        1.0,
        0.9999940991401672
      ],
      "min": [
        -1.0,
        -0.06326759606599808,
        -0.9999327063560486
      ],
      "type": "VEC3"
    },
    {
      "bufferView": 1,
      "componentType": 5126,
      "count": 204,
      "max": [
        0.9352972507476807,
        0.899021565914154
      ],
      "min": [
        0.00023860501823946834,
        0.00023908769071567804
      ],
      "type": "VEC2"
    },
    {
      "bufferView": 0,
      "componentType": 5125,
      "count": 774,
      "type": "SCALAR"
    },
    {
      "bufferView": 2,
      "byteOffset": 4896,
      "componentType": 5126,
      "count": 675,
      "max": [
        0.45703062415122986,
        0.3124414384365082,
        0.40128180384635925
      ],
      "min": [
        -0.24494922161102295,
        -0.11771570891141891,
        -0.18342070281505585
      ],
      "type": "VEC3"
    },
    {
      "bufferView": 2,
      "byteOffset": 12996,
      "componentType": 5126,
      "count": 675,
      "max": [
        0.9999972581863403,
        0.9999205470085144,
        0.998711109161377
      ],
      "min": [
        -0.9990007877349854,
        -0.5366913080215454,
        -0.9991090893745422
      ],
      "type": "VEC3"
    },
    {
      "bufferView": 1,
      "byteOffset": 1632,
      "componentType": 5126,
      "count": 675,
      "max": [
        0.8875784873962402,
        0.4310479164123535
      ],
      "min": [
        0.000534804945345968,
        0.0005370974540710449
      ],
      "type": "VEC2"
    },
    {
      "bufferView": 0,
      "byteOffset": 3096,
      "componentType": 5125,
      "count": 3360,
      "type": "SCALAR"
    },
    {
      "bufferView": 2,
      "byteOffset": 21096,
      "componentType": 5126,
      "count": 261,
      "max": [
        0.22517487406730652,
        0.04541059583425522,
        0.20049285888671875
      ],
      "min": [
        -0.18401743471622467,
        -0.06147962436079979,
        -0.08833040297031403
      ],
      "type": "VEC3"
    },
    {
      "bufferView": 2,
      "byteOffset": 24228,
      "componentType": 5126,
      "count": 261,
      "max": [
        0.9996260404586792,
        0.9999796152114868,
        0.9995452165603638
      ],
      "min": [
        -0.9903492331504822,
        -0.22952714562416077,
        -0.9980607032775879
      ],
      "type": "VEC3"
    },
    {
      "bufferView": 1,
      "byteOffset": 7032,
      "componentType": 5126,
      "count": 261,
      "max": [
        0.9396429657936096,
        0.4903358519077301
      ],
      "min": [
        0.04828315228223801,
        0.10565343499183655
      ],
      "type": "VEC2"
    },
    {
      "bufferView": 0,
      "byteOffset": 16536,
      "componentType": 5125,
      "count": 1152,
      "type": "SCALAR"
    },
    {
      "bufferView": 2,
      "byteOffset": 27360,
      "componentType": 5126,
      "count": 1719,
      "max": [
        1.032463550567627,
        0.3646697998046875,
        0.1455719918012619
      ],
      "min": [
        -0.25033849477767944,
        -0.16193988919258118,
        -2.653599977493286
      ],
      "type": "VEC3"
    },
    {
      "bufferView": 2,
      "byteOffset": 47988,
      "componentType": 5126,
      "count": 1719,
      "max": [
        0.9945339560508728,
        1.0,
        1.0
      ],
      "min": [
        -0.8807532787322998,
        -1.0,
        -1.0
      ],
      "type": "VEC3"
    },
    {
      "bufferView": 1,
      "byteOffset": 9120,
      "componentType": 5126,
      "count": 1719,
      "max": [
        0.999455988407135,
        0.9994261264801025
      ],
      "min": [
        0.0005361735820770264,
        0.0005462244153022766
      ],
      "type": "VEC2"
    },
    {
      "bufferView": 1,
      "byteOffset": 22872,
      "componentType": 5126,
      "count": 1719,
      "max": [
        0.9502349495887756,
        0.9251630902290344
      ],
      "min": [
        0.030653975903987885,
        0.06434468179941177
      ],
      "type": "VEC2"
    },
    {
      "bufferView": 0,
      "byteOffset": 21144,
      "componentType": 5125,
      "count": 6960,
      "type": "SCALAR"
    },
    {
      "bufferView": 2,
      "byteOffset": 68616,
      "componentType": 5126,
      "count": 2811,
      "max": [
        0.2273789942264557,
        0.048834096640348434,
        0.20311841368675232
      ],
      "min": [
        -0.18195092678070068,
        -0.0430472195148468,
        -0.0867675244808197
      ],
      "type": "VEC3"
    },
    {
      "bufferView": 2,
      "byteOffset": 102348,
      "componentType": 5126,
      "count": 2811,
      "max": [
        0.9995937943458557,
        0.9999970197677612,
        0.9999960660934448
      ],
      "min": [
        -0.9997789859771729,
        -0.6833614110946655,
        -0.9999376535415649
      ],
      "type": "VEC3"
    },
    {
      "bufferView": 1,
      "byteOffset": 36624,
      "componentType": 5126,
      "count": 2811,
      "max": [
        0.9531986117362976,
        0.8862022161483765
      ],
      "min": [
        0.0006257075001485646,
        0.304874062538147
      ],
      "type": "VEC2"
    },
    {
      "bufferView": 0,
      "byteOffset": 48984,
      "componentType": 5125,
      "count": 15360,
      "type": "SCALAR"
    },
    {
      "bufferView": 2,
      "byteOffset": 136080,
      "componentType": 5126,
      "count": 532,
      "max": [
        0.06943653523921967,
        1.2108615636825562,
        0.154328852891922
      ],
      "min": [
        -0.16897514462471008,
        -0.44779056310653687,
        -0.0709550753235817
      ],
      "type": "VEC3"
    },
    {
      "bufferView": 2,
      "byteOffset": 142464,
      "componentType": 5126,
      "count": 532,
      "max": [
        0.9991594552993774,
        0.9998055100440979,
        0.9991536140441895
      ],
      "min": [
        -0.9991593956947327,
        -0.999998152256012,
        -0.9991536140441895
      ],
      "type": "VEC3"
    },
    {
      "bufferView": 1,
      "byteOffset": 59112,
      "componentType": 5126,
      "count": 532,
      "max": [
        0.9995536208152771,
        0.9997609853744507
      ],
      "min": [
        0.000307348818751052,
        0.00023931264877319336
      ],
      "type": "VEC2"
    },
    {
      "bufferView": 0,
      "byteOffset": 110424,
      "componentType": 5125,
      "count": 1578,
      "type": "SCALAR"
    },
    {
      "bufferView": 2,
      "byteOffset": 148848,
      "componentType": 5126,
      "count": 4,
      "max": [
        1.706596851348877,
        -0.03509709611535072,
        1.8456840515136719
      ],
      "min": [
        -2.905317783355713,
        -0.03509709611535072,
        -2.766231060028076
      ],
      "type": "VEC3"
    },
    {
      "bufferView": 2,
      "byteOffset": 148896,
      "componentType": 5126,
      "count": 4,
      "max": [
        0.0,
        1.0,
        -0.0
      ],
      "min": [
        0.0,
        1.0,
        -0.0
      ],
      "type": "VEC3"
    },
    {
      "bufferView": 1,
      "byteOffset": 63368,
      "componentType": 5126,
      "count": 4,
      "max": [
        0.6542865633964539,
        0.6542866826057434
      ],
      "min": [
        0.00018513202667236328,
        0.0001851068955147639
      ],
      "type": "VEC2"
    },
    {
      "bufferView": 0,
      "byteOffset": 116736,
      "componentType": 5125,
      "count": 6,
      "type": "SCALAR"
    },
    {
      "bufferView": 2,
      "byteOffset": 148944,
      "componentType": 5126,
      "count": 226,
      "max": [
        0.11051008850336075,
        0.209818497300148,
        0.19579577445983887
      ],
      "min": [
        -0.09326431900262833,
        -0.2051703780889511,
        0.0010328097268939018
      ],
      "type": "VEC3"
    },
    {
      "bufferView": 2,
      "byteOffset": 151656,
      "componentType": 5126,
      "count": 226,
      "max": [
        0.8493994474411011,
        0.9998785257339478,
        0.9965435862541199
      ],
      "min": [
        -0.9365090131759644,
        -0.9965240359306335,
        -0.6081817150115967
      ],
      "type": "VEC3"
    },
    {
      "bufferView": 1,
      "byteOffset": 63400,
      "componentType": 5126,
      "count": 226,
      "max": [
        0.8965302109718323,
        0.9345183968544006
      ],
      "min": [
        0.11665388941764832,
        0.5277769565582275
      ],
      "type": "VEC2"
    },
    {
      "bufferView": 0,
      "byteOffset": 116760,
      "componentType": 5125,
      "count": 978,
      "type": "SCALAR"
    },
    {
      "bufferView": 2,
      "byteOffset": 154368,
      "componentType": 5126,
      "count": 226,
      "max": [
        0.11051008850336075,
        0.209818497300148,
        0.19579577445983887
      ],
      "min": [
        -0.09326431900262833,
        -0.2051703780889511,
        0.0010328097268939018
      ],
      "type": "VEC3"
    },
    {
      "bufferView": 2,
      "byteOffset": 157080,
      "componentType": 5126,
      "count": 226,
      "max": [
        0.8493994474411011,
        0.9998785257339478,
        0.9965435862541199
      ],
      "min": [
        -0.9365090131759644,
        -0.9965240359306335,
        -0.6081817150115967
      ],
      "type": "VEC3"
    },
    {
      "bufferView": 1,
      "byteOffset": 65208,
      "componentType": 5126,
      "count": 226,
      "max": [
        0.8923598527908325,
        0.930230438709259
      ],
      "min": [
        0.07551705837249756,
        0.16199609637260437
      ],
      "type": "VEC2"
    },
    {
      "bufferView": 0,
      "byteOffset": 120672,
      "componentType": 5125,
      "count": 978,
      "type": "SCALAR"
    },
    {
      "bufferView": 2,
      "byteOffset": 159792,
      "componentType": 5126,
      "count": 226,
      "max": [
        0.13139110803604126,
        0.2757411003112793,
        0.2205890268087387
      ],
      "min": [
        -0.118602454662323,
        -0.25876131653785706,
        -0.02094995230436325
      ],
      "type": "VEC3"
    },
    {
      "bufferView": 2,
      "byteOffset": 162504,
      "componentType": 5126,
      "count": 226,
      "max": [
        0.8495357036590576,
        0.9983602166175842,
        0.9959996342658997
      ],
      "min": [
        -0.9353122711181641,
        -0.9954072833061218,
        -0.6066548824310303
      ],
      "type": "VEC3"
    },
    {
      "bufferView": 1,
      "byteOffset": 67016,
      "componentType": 5126,
      "count": 226,
      "max": [
        0.9264600872993469,
        0.9345308542251587
      ],
      "min": [
        0.1716230809688568,
        0.0006418820121325552
      ],
      "type": "VEC2"
    },
    {
      "bufferView": 0,
      "byteOffset": 124584,
      "componentType": 5125,
      "count": 978,
      "type": "SCALAR"
    },
    {
      "bufferView": 3,
      "componentType": 5126,
      "count": 81,
      "max": [
        10.416666984558105
      ],
      "min": [
        0.0416666679084301
      ],
      "type": "SCALAR"
    },
    {
      "bufferView": 4,
      "componentType": 5126,
      "count": 81,
      "max": [
        0.0,
        0.0,
        -0.0,
        1.0
      ],
      "min": [
        0.0,
        -0.1164402887225151,
        -0.0,
        0.9931976795196533
      ],
      "type": "VEC4"
    },
    {
      "bufferView": 3,
      "byteOffset": 324,
      "componentType": 5126,
      "count": 80,
      "max": [
        3.3333332538604736
      ],
      "min": [
        0.0416666679084301
      ],
      "type": "SCALAR"
    },
    {
      "bufferView": 4,
      "byteOffset": 1296,
      "componentType": 5126,
      "count": 80,
      "max": [
        0.0,
        0.0,
        -0.0,
        1.0
      ],
      "min": [
        0.0,
        -0.1164403185248375,
        -0.0,
        0.9931976795196533
      ],
      "type": "VEC4"
    }
  ],
  "animations": [
    {
      "channels": [
        {
          "sampler": 0,
          "target": {
            "node": 3,
            "path": "rotation"
          }
        }
      ],
      "name": "Action",
      "samplers": [
        {
          "input": 41,
          "interpolation": "LINEAR",
          "output": 42
        }
      ]
    },
    {
      "channels": [
        {
          "sampler": 0,
          "target": {
            "node": 3,
            "path": "rotation"
          }
        }
      ],
      "name": "EmptyAction",
      "samplers": [
        {
          "input": 43,
          "interpolation": "LINEAR",
          "output": 44
        }
      ]
    }
  ],
  "asset": {
    "extras": {
      "author": "Omar Faruq Tawsif (https://sketchfab.com/omarfaruqtawsif32)",
      "license": "CC-BY-4.0 (http://creativecommons.org/licenses/by/4.0/)",
      "source": "https://sketchfab.com/3d-models/still-life-based-on-heathers-artwork-abbcbfa6be104fcc8dc8d5b07b607719",
      "title": "Still life, Based on Heather's artwork"
    },
    "generator": "Sketchfab-14.61.0",
    "version": "2.0"
  },
  "bufferViews": [
    {
      "buffer": 0,
      "byteLength": 128496,
      "name": "floatBufferViews",
      "target": 34963
    },
    {
      "buffer": 0,
      "byteLength": 68824,
      "byteOffset": 128496,
      "byteStride": 8,
      "name": "floatBufferViews",
      "target": 34962
    },
    {
      "buffer": 0,
      "byteLength": 165216,
      "byteOffset": 197320,
      "byteStride": 12,
      "name": "floatBufferViews",
      "target": 34962
    },
    {
      "buffer": 0,
      "byteLength": 644,
      "byteOffset": 362536,
      "name": "floatBufferViews"
    },
    {
      "buffer": 0,
      "byteLength": 2576,
      "byteOffset": 363180,
      "byteStride": 16,
      "name": "floatBufferViews"
    }
  ],
  "buffers": [
    {
      "byteLength": 365756,
      "uri": "scene.bin"
    }
  ],
  "extensionsUsed": [
    "KHR_materials_unlit"
  ],
  "images": [
    {
      "uri": "textures/board_n_knife_baseColor.png"
    },
    {
      "uri": "textures/food_baseColor.jpeg"
    },
    {
      "uri": "textures/Material.001_baseColor.jpeg"
    }
  ],
  "materials": [
    {
      "doubleSided": true,
      "extensions": {
        "KHR_materials_unlit": {}
      },
      "name": "board_n_knife",
      "pbrMetallicRoughness": {
        "baseColorTexture": {
          "index": 0
        },
        "metallicFactor": 0.0
      }
    },
    {
      "doubleSided": true,
      "emissiveFactor": [
        0.15,
        0.15,
        0.15
      ],
      "emissiveTexture": {
        "index": 1
      },
      "extensions": {
        "KHR_materials_unlit": {}
      },
      "name": "food",
      "pbrMetallicRoughness": {
        "baseColorTexture": {
          "index": 1
        },
        "metallicFactor": 0.0
      }
    },
    {
      "doubleSided": true,
      "extensions": {
        "KHR_materials_unlit": {}
      },
      "name": "Material.001",
      "pbrMetallicRoughness": {
        "baseColorTexture": {
          "index": 2
        },
        "metallicFactor": 0.0
      }
    }
  ],
  "meshes": [
    {
      "name": "Object_0",
      "primitives": [
        {
          "attributes": {
            "NORMAL": 1,
            "POSITION": 0,
            "TEXCOORD_0": 2
          },
          "indices": 3,
          "material": 0,
          "mode": 4
        }
      ]
    },
    {
      "name": "Object_1",
      "primitives": [
        {
          "attributes": {
            "NORMAL": 5,
            "POSITION": 4,
            "TEXCOORD_0": 6
          },
          "indices": 7,
          "material": 1,
          "mode": 4
        }
      ]
    },
    {
      "name": "Object_2",
      "primitives": [
        {
          "attributes": {
            "NORMAL": 9,
            "POSITION": 8,
            "TEXCOORD_0": 10
          },
          "indices": 11,
          "material": 1,
          "mode": 4
        }
      ]
    },
    {
      "name": "Object_3",
      "primitives": [
        {
          "attributes": {
            "NORMAL": 13,
            "POSITION": 12,
            "TEXCOORD_0": 14,
            "TEXCOORD_1": 15
          },
          "indices": 16,
          "material": 1,
          "mode": 4
        }
      ]
    },
    {
      "name": "Object_4",
      "primitives": [
        {
          "attributes": {
            "NORMAL": 18,
            "POSITION": 17,
            "TEXCOORD_0": 19
          },
          "indices": 20,
          "material": 1,
          "mode": 4
        }
      ]
    },
    {
      "name": "Object_5",
      "primitives": [
        {
          "attributes": {
            "NORMAL": 22,
            "POSITION": 21,
            "TEXCOORD_0": 23
          },
          "indices": 24,
          "material": 0,
          "mode": 4
        }
      ]
    },
    {
      "name": "Object_6",
      "primitives": [
        {
          "attributes": {
            "NORMAL": 26,
            "POSITION": 25,
            "TEXCOORD_0": 27
          },
          "indices": 28,
          "material": 2,
          "mode": 4
        }
      ]
    },
    {
      "name": "Object_7",
      "primitives": [
        {
          "attributes": {
            "NORMAL": 30,
            "POSITION": 29,
            "TEXCOORD_0": 31
          },
          "indices": 32,
          "material": 1,
          "mode": 4
        }
      ]
    },
    {
      "name": "Object_8",
      "primitives": [
        {
          "attributes": {
            "NORMAL": 34,
            "POSITION": 33,
            "TEXCOORD_0": 35
          },
          "indices": 36,
          "material": 1,
          "mode": 4
        }
      ]
    },
    {
      "name": "Object_9",
      "primitives": [
        {
          "attributes": {
            "NORMAL": 38,
            "POSITION": 37,
            "TEXCOORD_0": 39
          },
          "indices": 40,
          "material": 1,
          "mode": 4
        }
      ]
    }
  ],
  "nodes": [
    {
      "children": [
        1
      ],
      "matrix": [
        1.0,
        0.0,
        0.0,
        0.0,
        0.0,
        2.220446049250313e-16,
        -1.0,
        0.0,
        0.0,
        1.0,
        2.220446049250313e-16,
        0.0,
        0.0,
        0.0,
        0.0,
        1.0
      ],
      "name": "Sketchfab_model"
    },
    {
      "children": [
        2
      ],
      "name": "root"
    },
    {
      "children": [
        3
      ],
      "matrix": [
        1.0,
        0.0,
        0.0,
        0.0,
        0.0,
        2.220446049250313e-16,
        1.0,
        0.0,
        0.0,
        -1.0,
        2.220446049250313e-16,
        0.0,
        0.0,
        0.0,
        0.0,
        1.0
      ],
      "name": "GLTF_SceneRootNode"
    },
    {
      "children": [
        4,
        6,
        8,
        10,
        12,
        14,
        16,
        18,
        20,
        22
      ],
      "name": "Empty_10",
      "translation": [
        0.0,
        2.020540714263916,
        0.0
      ]
    },
    {
      "children": [
        5
      ],
      "matrix": [
        1.0,
        0.0,
        0.0,
        0.0,
        0.0,
        1.0,
        0.0,
        0.0,
        0.0,
        0.0,
        1.0,
        0.0,
        0.0,
        -2.020540714263916,
        0.0,
        1.0
      ],
      "name": "Cube_0"
    },
    {
      "mesh": 0,
      "name": "Object_5"
    },
    {
      "children": [
        7
      ],
      "matrix": [
        1.0,
        0.0,
        0.0,
        0.0,
        0.0,
        1.0,
        0.0,
        0.0,
        0.0,
        0.0,
        1.0,
        0.0,
        -0.49342256784439087,
        -1.7862600088119507,
        -0.0038467850536108017,
        1.0
      ],
      "name": "Cube.001_1"
    },
    {
      "mesh": 1,
      "name": "Object_7"
    },
    {
      "children": [
        9
      ],
      "matrix": [
        0.983014111751698,
        0.0,
        0.18352998691500055,
        0.0,
        0.0,
        1.0,
        0.0,
        0.0,
        -0.18352998691500055,
        -0.0,
        0.983014111751698,
        0.0,
        0.5236777663230896,
        -1.8540356159210205,
        0.267793208360672,
        1.0
      ],
      "name": "Cube.003_2"
    },
    {
      "mesh": 2,
      "name": "Object_9"
    },
    {
      "children": [
        11
      ],
      "matrix": [
        0.8589260804134373,
        0.0,
        -0.5120995883474321,
        0.0,
        0.0,
        1.0,
        0.0,
        0.0,
        0.5120995883474321,
        0.0,
        0.8589260804134373,
        0.0,
        0.41615158319473267,
        -1.937368392944336,
        1.166452169418335,
        1.0
      ],
      "name": "Cube.004_3"
    },
    {
      "mesh": 3,
      "name": "Object_11"
    },
    {
      "children": [
        13
      ],
      "matrix": [
        0.983014111751698,
        0.0,
        0.18352998691500055,
        0.0,
        0.0,
        1.0,
        0.0,
        0.0,
        -0.18352998691500055,
        -0.0,
        0.983014111751698,
        0.0,
        0.5236777663230896,
        -1.8540356159210205,
        0.267793208360672,
        1.0
      ],
      "name": "Cube.007_4"
    },
    {
      "mesh": 4,
      "name": "Object_13"
    },
    {
      "children": [
        15
      ],
      "matrix": [
        0.30892652829187334,
        0.8012114482120973,
        -0.6751846019115331,
        0.0,
        -0.9716573981522717,
        -0.04431280008740531,
        -0.4971598411491042,
        0.0,
        -0.392040727502283,
        0.7411789408026368,
        0.7001481821566012,
        0.0,
        0.836042582988739,
        -1.8646959066390991,
        -0.08925077319145203,
        1.0
      ],
      "name": "Cylinder.001_5"
    },
    {
      "mesh": 5,
      "name": "Object_15"
    },
    {
      "children": [
        17
      ],
      "matrix": [
        1.0,
        0.0,
        0.0,
        0.0,
        0.0,
        1.0,
        0.0,
        0.0,
        0.0,
        0.0,
        1.0,
        0.0,
        0.7846779823303223,
        -2.048365354537964,
        0.52374267578125,
        1.0
      ],
      "name": "Plane_6"
    },
    {
      "mesh": 6,
      "name": "Object_17"
    },
    {
      "children": [
        19
      ],
      "matrix": [
        0.8647598525376462,
        0.22723795887309634,
        0.44783178481016445,
        0.0,
        -0.48555939288930744,
        0.1507818313070307,
        0.8611021515039113,
        0.0,
        0.1281501986578079,
        -0.9620954991033307,
        0.24072759955825018,
        0.0,
        -0.1514400988817215,
        -1.727677822113037,
        0.7523208856582642,
        1.0
      ],
      "name": "Sphere.001_7"
    },
    {
      "mesh": 7,
      "name": "Object_19"
    },
    {
      "children": [
        21
      ],
      "matrix": [
        0.5496119413622482,
        -0.08024936448566256,
        -0.8315568251248184,
        0.0,
        0.8336292750696321,
        0.11782084046685681,
        0.5396114169460864,
        0.0,
        0.05467125075302598,
        -0.9897869917569795,
        0.13165396040290256,
        0.0,
        0.15689393877983093,
        -1.7131563425064087,
        0.6484915614128113,
        1.0
      ],
      "name": "Sphere.002_8"
    },
    {
      "mesh": 8,
      "name": "Object_21"
    },
    {
      "children": [
        23
      ],
      "matrix": [
        0.7907008196007383,
        -0.09998172713974048,
        0.5497345591981325,
        0.0,
        -0.5582403794113515,
        -0.10057751804045116,
        0.7846427050153979,
        0.0,
        -0.023919622948277642,
        -0.9577576989614902,
        -0.13978565139855703,
        0.0,
        0.5047023892402649,
        -1.7131563425064087,
        -0.7388864159584045,
        1.0
      ],
      "name": "Sphere.003_9"
    },
    {
      "mesh": 9,
      "name": "Object_23"
    }
  ],
  "samplers": [
    {
      "magFilter": 9729,
      "minFilter": 9729,
      "wrapS": 10497,
      "wrapT": 10497
    },
    {
      "magFilter": 9729,
      "minFilter": 9987,
      "wrapS": 10497,
      "wrapT": 10497
    }
  ],
  "scene": 0,
  "scenes": [
    {
      "name": "Sketchfab_Scene",
      "nodes": [
        0
      ]
    }
  ],
  "textures": [
    {
      "sampler": 0,
      "source": 0
    },
    {
      "sampler": 0,
      "source": 1
    },
    {
      "sampler": 1,
      "source": 2
    }
  ]
}
